# xmcd
#
# Track frame offsets: 
#        150
#        11785
#        28805
#        40060
#        50495
#        63635
#        78780
#        90520
#        100805
#        114085
#        127235
#        140830
#        152885
#        165235
#        174755
#        184760
#
# Disc length: 2666 seconds
#
# Revision: 1
# Processed by: cddbd v1.5.2PL0 Copyright (c) Steve Scherf et al.
# Submitted via: ExactAudioCopy v1.1
#
DISCID=ca0a6810
DTITLE=Various Artist - It's Only Make Believe
DYEAR=1900
DGENRE=country
TTITLE0=Boxcar Willie - Mister, Can You Spare A Dime
TTITLE1=Sandy Posey - Rose Of Cimarron
TTITLE2=Don Williams - Follow Me Back From Louisville
TTITLE3=Jeannie C.Riley - Help Me Make It Through The Night
TTITLE4=John Denver - Annie's Song (Live)
TTITLE5=Lynn Anderson - Desperado
TTITLE6=Stonewall Jackson - Waterloo
TTITLE7=Wanda Jackson - It's Only Make Believe
TTITLE8=Dave Dudley - A Friend Named Wine
TTITLE9=Dottie West - D.I.V.O.R.C.E.
TTITLE10=Ferlin Husky - Baby
TTITLE11=LaCosta Tucker - He Took Me For A Ride
TTITLE12=Johnny Russel - Goodhearted Woman
TTITLE13=Skeeter Davis - Turn Your Radio On
TTITLE14=Buddy Knox - Devil Woman
TTITLE15=Melba Montgomery - No Charge
EXTD=Country   THE BEST OF  CD2
EXTT0=
EXTT1=
EXTT2=
EXTT3=
EXTT4=
EXTT5=
EXTT6=
EXTT7=
EXTT8=
EXTT9=
EXTT10=
EXTT11=
EXTT12=
EXTT13=
EXTT14=
EXTT15=
PLAYORDER=
